# xmcd CD database file
#
# Track frame offsets:
#	150
#	19269
#	40555
#	63334
#	82138
#	97954
#	119052
#	141860
#	162807
#	185668
#	209805
#
# Disc length: 3147 seconds
#
# Revision: 7
# Processed by: cddbd v1.5PL3 Copyright (c) Steve Scherf et al.
# Submitted via: CDex 1.40Release
#
DISCID=9e0c490b
DTITLE=Enya - Solas
DYEAR=1999
DGENRE=New Age
TTITLE0=Love Song
TTITLE1=All The Way Back Home (LP Version)
TTITLE2=Dreaming
TTITLE3=Heaven
TTITLE4=New Lands
TTITLE5=Take Me With You
TTITLE6=Angel
TTITLE7=Far Away
TTITLE8=Communication
TTITLE9=Secret World
TTITLE10=All The Way Back Home (Album Remix)
EXTD=YEAR: 1999 ID3G: 10
EXTT0=
EXTT1=
EXTT2=
EXTT3=
EXTT4=
EXTT5=
EXTT6=
EXTT7=
EXTT8=
EXTT9=
EXTT10=
PLAYORDER=
